inDegrees=no
num_controls=7
num_derivatives=13
num_iterations=157
num_multipliers=7
num_parameters=0
num_slacks=7
num_states=26
objective=5.884331
objective_accelerations=0.557186
objective_balance=0.043989
objective_effort=0.531548
objective_height=4.704036
objective_ligament=0.047572
solver_duration=1628.723516
status=Solve_Succeeded
success=true
DataType=double
version=3
OpenSimVersion=4.4-2022-07-23-0e9fedc
endheader
time	/jointset/ground_pelvis/pelvis_tilt/value	/jointset/ground_pelvis/pelvis_tx/value	/jointset/ground_pelvis/pelvis_ty/value	/jointset/hip_l/hip_flexion_l/value	/jointset/hip_l/hip_adduction_l/value	/jointset/hip_l/hip_rotation_l/value	/jointset/back/lumbar_extension/value	/jointset/patellofemoral_l/patellar_flexion_l/value	/jointset/knee_l/knee_flexion_l/value	/jointset/knee_l/knee_adduction_l/value	/jointset/knee_l/knee_rotation_l/value	/jointset/ankle_l/ankle_angle_l/value	/jointset/subtalar_l/subtalar_angle_l/value	/jointset/ground_pelvis/pelvis_tilt/speed	/jointset/ground_pelvis/pelvis_tx/speed	/jointset/ground_pelvis/pelvis_ty/speed	/jointset/hip_l/hip_flexion_l/speed	/jointset/hip_l/hip_adduction_l/speed	/jointset/hip_l/hip_rotation_l/speed	/jointset/back/lumbar_extension/speed	/jointset/patellofemoral_l/patellar_flexion_l/speed	/jointset/knee_l/knee_flexion_l/speed	/jointset/knee_l/knee_adduction_l/speed	/jointset/knee_l/knee_rotation_l/speed	/jointset/ankle_l/ankle_angle_l/speed	/jointset/subtalar_l/subtalar_angle_l/speed	/forceset/tau_hip_flexion_l	/forceset/tau_hip_adduction_l	/forceset/tau_hip_rotation_l	/forceset/tau_knee_flexion_l	/forceset/tau_ankle_angle_l	/forceset/tau_subtalar_angle_l	/forceset/tau_lumbar_extension	lambda_cid13_p0	lambda_cid13_p1	lambda_cid13_p2	lambda_cid13_p3	lambda_cid13_p4	lambda_cid13_p5	lambda_cid14_p0	/jointset/ground_pelvis/pelvis_tilt/accel	/jointset/ground_pelvis/pelvis_tx/accel	/jointset/ground_pelvis/pelvis_ty/accel	/jointset/hip_l/hip_flexion_l/accel	/jointset/hip_l/hip_adduction_l/accel	/jointset/hip_l/hip_rotation_l/accel	/jointset/back/lumbar_extension/accel	/jointset/patellofemoral_l/patellar_flexion_l/accel	/jointset/knee_l/knee_flexion_l/accel	/jointset/knee_l/knee_adduction_l/accel	/jointset/knee_l/knee_rotation_l/accel	/jointset/ankle_l/ankle_angle_l/accel	/jointset/subtalar_l/subtalar_angle_l/accel	gamma_cid13_p0	gamma_cid13_p1	gamma_cid13_p2	gamma_cid13_p3	gamma_cid13_p4	gamma_cid13_p5	gamma_cid14_p0
0.5	-0.1400995873601	-0.0623461109007784	0.8014579367397654	0.9899269850780223	-0.3302439915209257	-0.08506501996548949	-0.7956456065321498	0.8868605658683144	0.8868605658682773	-0.111983602837252	-0.1745224041255015	0.0963430354962298	-0.005911819291350352	-0.2515547197056203	-0.2014566047209563	-0.4266262680874895	1.750288341980109	-0.02864902980269915	0.5494415428905081	-0.8331569553529364	1.687918266356028	1.687918266356025	0.1368838683194626	2.323633675799406e-05	0.3009312879127805	0.06408975086639626	-0.3023096873668076	0.01803692508425833	-0.00286626499850955	-0.2263176861363972	0.1119128644630922	0.0489441731517937	0.3447765263598421	-8.481423518079545	-21.12650850866981	4.461674529977658	-11.47875764181939	-703.4252725381942	-74.92355561484671	-11.14935956941741	0.3573553646431565	0.7523733392432336	-0.1645035639475766	-1.605321490743491	0.3499383834923386	-0.4644508081266828	1.968944946945429	-1.331290947252503	-1.331290947252518	-0.1931542023157625	0.01198803165414925	-0.1329919265097607	0.3573429543697248	-1.99105213155595e-07	-3.801955961788536e-07	9.458705318002003e-07	6.035171316862886e-08	-2.216482444297981e-07	7.267990512053915e-09	-1.859607932798511e-07
0.51	-0.1425968335760456	-0.06432301598595506	0.7971843840406966	1.007346946144948	-0.3305138353383649	-0.07959369016865035	-0.8038779649098915	0.9036705495583649	0.903670549558407	-0.1106265019261584	-0.1745219047015628	0.0993447688469327	-0.005254271196102085	-0.2478569862304553	-0.1939222002178073	-0.4279888674914092	1.733466779767494	-0.02532601647199395	0.544735086567976	-0.8132315561100525	1.673837615160699	1.673837615160706	0.1345500771878308	6.167473524728088e-05	0.2993557764650268	0.0673978519296346	-0.3095239228019387	0.01829786718378636	-0.003070027017739003	-0.2291641047922431	0.1116225444407999	0.04912340798313813	0.3515503393182107	-8.849514521648921	-21.08595097034859	4.393585126788669	-11.33351295276562	-708.1300226734895	-74.68550017384433	-10.47776147932245	0.3815909023880129	0.7543258779113878	-0.1078758589131002	-1.756165758841183	0.3224105551235324	-0.4873245410526575	2.016812026011823	-1.482540836519746	-1.482540836518426	-0.2514495162093218	-0.002238287858776966	-0.178775558398129	0.31414724947057	-2.174314399280528e-07	-2.289919727719778e-07	1.159494346112877e-06	1.02757774634578e-07	-2.332671325151321e-07	4.749288027053037e-08	-1.934633560409871e-07
0.52	-0.1450559807445372	-0.0662245066516894	0.7929000578015295	1.02459157315531	-0.3307506634730262	-0.07417214123439406	-0.8119085743725882	0.9203325090102938	0.9203325090104076	-0.109292330515921	-0.1745214228999928	0.1023289581222624	-0.004564321376786847	-0.2439349102178931	-0.1863737208324882	-0.4287809761071833	1.715221530662034	-0.02204589325075566	0.5394853703760091	-0.7928071723450584	1.658313418731517	1.658313418731534	0.132297968151319	1.971186153233529e-05	0.2974224728376811	0.07057009567966523	-0.3167381582369764	0.01855880928334684	-0.003273789036958046	-0.2320105234480622	0.1113322244185199	0.04930264281452575	0.3583241522766544	-9.2204584313094	-21.04564349037181	4.326392809018384	-11.22617902115495	-712.9100201081039	-74.49827858430758	-9.805800254480992	0.402223872122832	0.7551883156770246	-0.05040540631849261	-1.890058869312611	0.3413603615989568	-0.5731027820137161	2.068741851367702	-1.619999994022994	-1.61999999402299	-0.1768177832916995	-0.004092222786730017	-0.20455036242845	0.3301714917281006	-2.046094729970525e-07	-1.580965319072413e-07	1.147076022761821e-06	1.077417424898853e-07	-2.159727585456533e-07	7.417272545039869e-08	-1.818423225163938e-07
0.53	-0.1474748631337427	-0.06805048431732549	0.788610672679798	1.041646804086032	-0.3309548963478141	-0.06880522737456503	-0.819732543510427	0.9368321603199361	0.9368321603200239	-0.1079805596332424	-0.1745213655726764	0.1052921312475247	-0.003843299470095562	-0.2398076550079882	-0.1788231749832374	-0.4289987537968967	1.695593191564608	-0.01881610192852995	0.5338481319777574	-0.7719176983445409	1.641385161219457	1.641385161219481	0.1300327573542049	-3.880388471111755e-06	0.2951589803260514	0.07360328354158148	-0.3236123154707681	0.01858184555636324	-0.003441119206621852	-0.2350814026090375	0.111267253072611	0.04937374567584908	0.3647900451335475	-9.517289234477616	-20.9672812834256	4.248483999083327	-11.114860200847	-717.5772316991018	-74.28513549083871	-9.135397002816919	0.4230430523937856	0.7548053875442361	0.007088838130062988	-2.033967138619538	0.3113312183037371	-0.5665831914477927	2.109393706409229	-1.763955778721776	-1.763955778720898	-0.2548922913228455	-0.000607981390383798	-0.2452219323736231	0.2851279803610882	-1.941123252954147e-07	-1.292981122805408e-07	1.116145478141109e-06	1.064551909996335e-07	-2.015865662370866e-07	9.475049268184037e-08	-1.74076508216751e-07
0.54	-0.1498514596294455	-0.06980099299087109	0.7843220203388556	1.05849880248407	-0.3311273227692093	-0.06349619566328191	-0.8273455492018534	0.9531555856246763	0.9531555856247259	-0.106692144771217	-0.1745213672189092	0.1082310748003025	-0.003092898575396981	-0.2354777315192847	-0.1712799224143909	-0.428634419949445	1.674575024120693	-0.01568460257554258	0.5279089406708382	-0.7506144830633742	1.623068217750433	1.623068217750464	0.12762676402104	7.917150198126315e-06	0.2925765583406883	0.07644589328100936	-0.33048647270449	0.01860488182938497	-0.003608449376187653	-0.2381522817700057	0.1112022817266991	0.04944484853717605	0.3712559379905042	-9.817748912123754	-20.88893327824397	4.171320374250897	-11.03946581372518	-722.3295972138651	-74.12018268195021	-8.468311262660329	0.4427575278828774	0.7537296595959593	0.06601690111450764	-2.168024538610638	0.3217019677513052	-0.633493363747261	2.151490107497839	-1.897737185415892	-1.897737185415879	-0.2049742905018127	0.002985734947803681	-0.2683362571754444	0.2920558672303438	-1.861873180177527e-07	-1.470751204065617e-07	1.064733327009289e-06	9.823104363769934e-08	-1.904179366171886e-07	1.085770247362993e-07	-1.705760428468407e-07
0.55	-0.1521837880686875	-0.07147617896625019	0.780039921629894	1.075133849732708	-0.3312688737877575	-0.05824840652883304	-0.8347436030196077	0.9692890611691606	0.9692890611691656	-0.1054280786271445	-0.1745212919224364	0.111142663554543	-0.002314950347582318	-0.2309569862146679	-0.1637653573704313	-0.4276880452484715	1.652216216650724	-0.01263793653115318	0.5215782265472307	-0.7289428063546298	1.603408338380325	1.603408338380353	0.1251922366078513	3.051861616898743e-06	0.2896935926871083	0.07911781030310008	-0.3370922703426932	0.01858407823185392	-0.003741233763829612	-0.2411677430288875	0.1109557101600178	0.04937927775276572	0.3774095036055643	-10.17181693855728	-20.7377654954415	4.077890635799063	-10.82670521184028	-726.8779002423336	-73.85077564320459	-7.80642879938634	0.4613601639463425	0.7491259688058686	0.1235023784193022	-2.302563791883179	0.2941723079548575	-0.643609699275692	2.183027572801382	-2.032862494514758	-2.032862494515229	-0.2618411559081119	-0.002625376323106383	-0.3054161197287995	0.2507720163039626	-1.769463701769299e-07	-1.455540870608801e-07	1.019531107141946e-06	9.282073412179316e-08	-1.783858547868503e-07	1.227931233928925e-07	-1.648592286848046e-07
0.5600000000000001	-0.1544699836284387	-0.07307645808278866	0.7757701975927087	1.091538757918522	-0.3313803534688137	-0.05306607438816684	-0.8419233358462235	0.9852193880836142	0.9852193880835504	-0.1041881875950638	-0.1745213458219352	0.114023994772191	-0.001511080470225088	-0.226251155622218	-0.1562985506462627	-0.4261594855942467	1.628547211553023	-0.009670335079884318	0.5148175419193037	-0.7069502848363117	1.582438491741964	1.58243849174199	0.1227917416274445	-1.792204944446048e-05	0.2865250510223484	0.08163022318941469	-0.3436980679808498	0.01856327463430747	-0.003874018151516039	-0.2441832042877629	0.1107091385933292	0.04931370696833658	0.3835630692206717	-10.52945690848466	-20.5883122534866	3.987407910084195	-10.65223265254147	-731.5066728556486	-73.63037221719367	-7.166825657802907	0.4797745854498591	0.7441779956375375	0.182453891764738	-2.430064064156973	0.3058890491272256	-0.7194874646111492	2.21565906941283	-2.159730639066199	-2.159730639066202	-0.1981678039453795	-0.0002359895481897478	-0.3254514594117632	0.2601550400750486	-1.661262936603143e-07	-1.208754039491565e-07	9.817808047919751e-07	9.07870300211204e-08	-1.653176303039835e-07	1.374767019720467e-07	-1.564827959722179e-07
0.5700000000000001	-0.1567082539679749	-0.07460235977391383	0.7715186618489306	1.107700580585371	-0.3314625657289685	-0.04795331319872546	-0.848881658695309	1.000933604297749	1.000933604297704	-0.1029722221325526	-0.1745216064222061	0.1168722749339368	-0.0006828903598641028	-0.2213751153000909	-0.1488944909906714	-0.424050814247354	1.603607418925175	-0.006792483287035262	0.5076823525791717	-0.6846751917371331	1.560196247774027	1.560196247774047	0.1203854854370668	-3.444534024439624e-05	0.2830871798729594	0.08397319653930052	-0.3499662061458968	0.01841953551437223	-0.003971906469641027	-0.2472379789683263	0.1104254082893936	0.04912845052052239	0.3893636642453719	-10.89237686406497	-20.3844111938096	3.886480450600275	-10.3901816233478	-735.9119815226497	-73.34176105055627	-6.558840329347535	0.4956719772299278	0.7366323653658106	0.2395695080034928	-2.557443262112124	0.2755563673869367	-0.7185193941222744	2.239298417049421	-2.287716423604953	-2.287716423605861	-0.2642453268421278	-0.002201825418844462	-0.3595225796286667	0.2160826705093066	-1.535221099808786e-07	-8.78906124887855e-08	9.424230756026922e-07	8.915554597514483e-08	-1.504578482990682e-07	1.513857737749788e-07	-1.464152014229281e-07
